<mxfile host="65bd71144e">
    <diagram id="nxAzb5WW1ZS3nCsvcDKC" name="劳务合同">
        <mxGraphModel dx="1156" dy="876" grid="1" gridSize="10" guides="1" tooltips="1" connect="1" arrows="1" fold="1" page="1" pageScale="1" pageWidth="1169" pageHeight="827" math="0" shadow="0">
            <root>
                <mxCell id="0"/>
                <mxCell id="1" parent="0"/>
                <mxCell id="NW6wpj9ULlDBM7W9JZ72-21" value="合同流程" style="swimlane;childLayout=stackLayout;resizeParent=1;resizeParentMax=0;startSize=20;html=1;" parent="1" vertex="1">
                    <mxGeometry x="40" y="40" width="600" height="730" as="geometry"/>
                </mxCell>
                <mxCell id="NW6wpj9ULlDBM7W9JZ72-22" value="甲方" style="swimlane;startSize=20;html=1;" parent="NW6wpj9ULlDBM7W9JZ72-21" vertex="1">
                    <mxGeometry y="20" width="200" height="710" as="geometry"/>
                </mxCell>
                <mxCell id="NW6wpj9ULlDBM7W9JZ72-3" value="劳务招标" style="rounded=0;whiteSpace=wrap;html=1;" parent="NW6wpj9ULlDBM7W9JZ72-22" vertex="1">
                    <mxGeometry x="40" y="60" width="120" height="40" as="geometry"/>
                </mxCell>
                <mxCell id="NW6wpj9ULlDBM7W9JZ72-5" value="清单/图纸/材料/工期" style="rounded=0;whiteSpace=wrap;html=1;" parent="NW6wpj9ULlDBM7W9JZ72-22" vertex="1">
                    <mxGeometry x="40" y="140" width="120" height="40" as="geometry"/>
                </mxCell>
                <mxCell id="NW6wpj9ULlDBM7W9JZ72-6" value="" style="edgeStyle=none;html=1;" parent="NW6wpj9ULlDBM7W9JZ72-22" source="NW6wpj9ULlDBM7W9JZ72-3" target="NW6wpj9ULlDBM7W9JZ72-5" edge="1">
                    <mxGeometry relative="1" as="geometry"/>
                </mxCell>
                <mxCell id="NW6wpj9ULlDBM7W9JZ72-15" value="议价" style="whiteSpace=wrap;html=1;" parent="NW6wpj9ULlDBM7W9JZ72-22" vertex="1">
                    <mxGeometry x="40" y="260" width="120" height="40" as="geometry"/>
                </mxCell>
                <mxCell id="NW6wpj9ULlDBM7W9JZ72-36" value="" style="edgeStyle=none;html=1;endArrow=none;" parent="NW6wpj9ULlDBM7W9JZ72-22" source="NW6wpj9ULlDBM7W9JZ72-15" target="NW6wpj9ULlDBM7W9JZ72-28" edge="1">
                    <mxGeometry relative="1" as="geometry">
                        <mxPoint x="130" y="360" as="sourcePoint"/>
                        <mxPoint x="130" y="600" as="targetPoint"/>
                    </mxGeometry>
                </mxCell>
                <mxCell id="NW6wpj9ULlDBM7W9JZ72-28" value="劳务合同&lt;br&gt;（电子档）" style="whiteSpace=wrap;html=1;" parent="NW6wpj9ULlDBM7W9JZ72-22" vertex="1">
                    <mxGeometry x="40" y="340" width="120" height="40" as="geometry"/>
                </mxCell>
                <mxCell id="NW6wpj9ULlDBM7W9JZ72-45" value="" style="edgeStyle=none;html=1;" parent="NW6wpj9ULlDBM7W9JZ72-22" source="NW6wpj9ULlDBM7W9JZ72-41" target="NW6wpj9ULlDBM7W9JZ72-28" edge="1">
                    <mxGeometry relative="1" as="geometry"/>
                </mxCell>
                <mxCell id="NW6wpj9ULlDBM7W9JZ72-41" value="修改合同&lt;br&gt;（1.0版本）" style="whiteSpace=wrap;html=1;" parent="NW6wpj9ULlDBM7W9JZ72-22" vertex="1">
                    <mxGeometry x="40" y="420" width="120" height="40" as="geometry"/>
                </mxCell>
                <mxCell id="NW6wpj9ULlDBM7W9JZ72-46" value="归档" style="whiteSpace=wrap;html=1;" parent="NW6wpj9ULlDBM7W9JZ72-22" vertex="1">
                    <mxGeometry x="40" y="540" width="120" height="40" as="geometry"/>
                </mxCell>
                <mxCell id="NW6wpj9ULlDBM7W9JZ72-25" value="乙方" style="swimlane;startSize=20;html=1;" parent="NW6wpj9ULlDBM7W9JZ72-21" vertex="1">
                    <mxGeometry x="200" y="20" width="400" height="710" as="geometry"/>
                </mxCell>
                <mxCell id="NW6wpj9ULlDBM7W9JZ72-26" value="" style="edgeStyle=none;html=1;" parent="NW6wpj9ULlDBM7W9JZ72-25" source="NW6wpj9ULlDBM7W9JZ72-7" target="NW6wpj9ULlDBM7W9JZ72-2" edge="1">
                    <mxGeometry relative="1" as="geometry">
                        <Array as="points">
                            <mxPoint x="284" y="280"/>
                        </Array>
                    </mxGeometry>
                </mxCell>
                <mxCell id="NW6wpj9ULlDBM7W9JZ72-7" value="乙方现场勘查" style="rounded=0;whiteSpace=wrap;html=1;" parent="NW6wpj9ULlDBM7W9JZ72-25" vertex="1">
                    <mxGeometry x="224" y="140" width="120" height="40" as="geometry"/>
                </mxCell>
                <mxCell id="NW6wpj9ULlDBM7W9JZ72-2" value="报价" style="rounded=0;whiteSpace=wrap;html=1;" parent="NW6wpj9ULlDBM7W9JZ72-25" vertex="1">
                    <mxGeometry x="40" y="260" width="120" height="40" as="geometry"/>
                </mxCell>
                <mxCell id="NW6wpj9ULlDBM7W9JZ72-11" value="现场勘查" style="rhombus;whiteSpace=wrap;html=1;" parent="NW6wpj9ULlDBM7W9JZ72-25" vertex="1">
                    <mxGeometry x="60" y="140" width="80" height="40" as="geometry"/>
                </mxCell>
                <mxCell id="NW6wpj9ULlDBM7W9JZ72-13" style="edgeStyle=none;html=1;entryX=0;entryY=0.5;entryDx=0;entryDy=0;" parent="NW6wpj9ULlDBM7W9JZ72-25" source="NW6wpj9ULlDBM7W9JZ72-11" target="NW6wpj9ULlDBM7W9JZ72-7" edge="1">
                    <mxGeometry relative="1" as="geometry"/>
                </mxCell>
                <mxCell id="NW6wpj9ULlDBM7W9JZ72-14" value="需要" style="edgeLabel;html=1;align=center;verticalAlign=middle;resizable=0;points=[];" parent="NW6wpj9ULlDBM7W9JZ72-13" vertex="1" connectable="0">
                    <mxGeometry x="-0.1" y="-1" relative="1" as="geometry">
                        <mxPoint y="1" as="offset"/>
                    </mxGeometry>
                </mxCell>
                <mxCell id="NW6wpj9ULlDBM7W9JZ72-33" value="" style="edgeStyle=none;html=1;" parent="NW6wpj9ULlDBM7W9JZ72-25" source="NW6wpj9ULlDBM7W9JZ72-11" target="NW6wpj9ULlDBM7W9JZ72-2" edge="1">
                    <mxGeometry relative="1" as="geometry"/>
                </mxCell>
                <mxCell id="NW6wpj9ULlDBM7W9JZ72-35" value="不需要" style="edgeLabel;html=1;align=center;verticalAlign=middle;resizable=0;points=[];" parent="NW6wpj9ULlDBM7W9JZ72-33" vertex="1" connectable="0">
                    <mxGeometry x="-0.1104" y="1" relative="1" as="geometry">
                        <mxPoint y="1" as="offset"/>
                    </mxGeometry>
                </mxCell>
                <mxCell id="NW6wpj9ULlDBM7W9JZ72-37" value="盖章" style="whiteSpace=wrap;html=1;" parent="NW6wpj9ULlDBM7W9JZ72-25" vertex="1">
                    <mxGeometry x="40" y="540" width="120" height="40" as="geometry"/>
                </mxCell>
                <mxCell id="NW6wpj9ULlDBM7W9JZ72-39" value="同意" style="rhombus;whiteSpace=wrap;html=1;" parent="NW6wpj9ULlDBM7W9JZ72-25" vertex="1">
                    <mxGeometry x="60" y="420" width="80" height="40" as="geometry"/>
                </mxCell>
                <mxCell id="NW6wpj9ULlDBM7W9JZ72-38" value="" style="edgeStyle=none;html=1;exitX=0.5;exitY=1;exitDx=0;exitDy=0;" parent="NW6wpj9ULlDBM7W9JZ72-25" source="NW6wpj9ULlDBM7W9JZ72-39" target="NW6wpj9ULlDBM7W9JZ72-37" edge="1">
                    <mxGeometry relative="1" as="geometry"/>
                </mxCell>
                <mxCell id="NW6wpj9ULlDBM7W9JZ72-44" value="同意" style="edgeLabel;html=1;align=center;verticalAlign=middle;resizable=0;points=[];" parent="NW6wpj9ULlDBM7W9JZ72-38" vertex="1" connectable="0">
                    <mxGeometry x="-0.25" relative="1" as="geometry">
                        <mxPoint as="offset"/>
                    </mxGeometry>
                </mxCell>
                <mxCell id="NW6wpj9ULlDBM7W9JZ72-27" style="edgeStyle=none;html=1;entryX=1;entryY=0.5;entryDx=0;entryDy=0;" parent="NW6wpj9ULlDBM7W9JZ72-21" source="NW6wpj9ULlDBM7W9JZ72-2" target="NW6wpj9ULlDBM7W9JZ72-15" edge="1">
                    <mxGeometry relative="1" as="geometry"/>
                </mxCell>
                <mxCell id="NW6wpj9ULlDBM7W9JZ72-12" style="edgeStyle=none;html=1;" parent="NW6wpj9ULlDBM7W9JZ72-21" source="NW6wpj9ULlDBM7W9JZ72-5" target="NW6wpj9ULlDBM7W9JZ72-11" edge="1">
                    <mxGeometry relative="1" as="geometry"/>
                </mxCell>
                <mxCell id="NW6wpj9ULlDBM7W9JZ72-40" value="" style="edgeStyle=none;html=1;" parent="NW6wpj9ULlDBM7W9JZ72-21" source="NW6wpj9ULlDBM7W9JZ72-28" target="NW6wpj9ULlDBM7W9JZ72-39" edge="1">
                    <mxGeometry relative="1" as="geometry">
                        <Array as="points">
                            <mxPoint x="300" y="380"/>
                        </Array>
                    </mxGeometry>
                </mxCell>
                <mxCell id="NW6wpj9ULlDBM7W9JZ72-42" value="" style="edgeStyle=none;html=1;" parent="NW6wpj9ULlDBM7W9JZ72-21" source="NW6wpj9ULlDBM7W9JZ72-39" target="NW6wpj9ULlDBM7W9JZ72-41" edge="1">
                    <mxGeometry relative="1" as="geometry"/>
                </mxCell>
                <mxCell id="NW6wpj9ULlDBM7W9JZ72-43" value="不同意" style="edgeLabel;html=1;align=center;verticalAlign=middle;resizable=0;points=[];" parent="NW6wpj9ULlDBM7W9JZ72-42" vertex="1" connectable="0">
                    <mxGeometry x="-0.6077" y="1" relative="1" as="geometry">
                        <mxPoint as="offset"/>
                    </mxGeometry>
                </mxCell>
                <mxCell id="NW6wpj9ULlDBM7W9JZ72-47" value="" style="edgeStyle=none;html=1;" parent="NW6wpj9ULlDBM7W9JZ72-21" source="NW6wpj9ULlDBM7W9JZ72-37" target="NW6wpj9ULlDBM7W9JZ72-46" edge="1">
                    <mxGeometry relative="1" as="geometry"/>
                </mxCell>
            </root>
        </mxGraphModel>
    </diagram>
    <diagram id="oIifoQukvcGcTA-fH58A" name="采购合同">
        <mxGraphModel dx="1156" dy="876" grid="1" gridSize="10" guides="1" tooltips="1" connect="1" arrows="1" fold="1" page="1" pageScale="1" pageWidth="1169" pageHeight="827" math="0" shadow="0">
            <root>
                <mxCell id="0"/>
                <mxCell id="1" parent="0"/>
                <mxCell id="tzKxGg8fr5iQHCcR7QoJ-1" value="" style="edgeStyle=none;html=1;" parent="1" source="tzKxGg8fr5iQHCcR7QoJ-3" target="tzKxGg8fr5iQHCcR7QoJ-5" edge="1">
                    <mxGeometry relative="1" as="geometry"/>
                </mxCell>
                <mxCell id="tzKxGg8fr5iQHCcR7QoJ-2" value="" style="edgeStyle=none;html=1;" parent="1" source="tzKxGg8fr5iQHCcR7QoJ-3" target="tzKxGg8fr5iQHCcR7QoJ-33" edge="1">
                    <mxGeometry relative="1" as="geometry"/>
                </mxCell>
                <mxCell id="tzKxGg8fr5iQHCcR7QoJ-3" value="合同起草" style="rounded=0;whiteSpace=wrap;html=1;" parent="1" vertex="1">
                    <mxGeometry x="160" y="40" width="120" height="60" as="geometry"/>
                </mxCell>
                <mxCell id="tzKxGg8fr5iQHCcR7QoJ-4" value="" style="edgeStyle=none;html=1;" parent="1" source="tzKxGg8fr5iQHCcR7QoJ-5" target="tzKxGg8fr5iQHCcR7QoJ-7" edge="1">
                    <mxGeometry relative="1" as="geometry"/>
                </mxCell>
                <mxCell id="tzKxGg8fr5iQHCcR7QoJ-5" value="选择模版" style="rounded=0;whiteSpace=wrap;html=1;" parent="1" vertex="1">
                    <mxGeometry x="160" y="180" width="120" height="60" as="geometry"/>
                </mxCell>
                <mxCell id="tzKxGg8fr5iQHCcR7QoJ-6" value="" style="edgeStyle=none;html=1;" parent="1" source="tzKxGg8fr5iQHCcR7QoJ-7" target="tzKxGg8fr5iQHCcR7QoJ-9" edge="1">
                    <mxGeometry relative="1" as="geometry"/>
                </mxCell>
                <mxCell id="tzKxGg8fr5iQHCcR7QoJ-7" value="编辑合同&lt;br&gt;1.0" style="rounded=0;whiteSpace=wrap;html=1;" parent="1" vertex="1">
                    <mxGeometry x="160" y="320" width="120" height="60" as="geometry"/>
                </mxCell>
                <mxCell id="tzKxGg8fr5iQHCcR7QoJ-8" value="" style="edgeStyle=none;html=1;" parent="1" source="tzKxGg8fr5iQHCcR7QoJ-9" target="tzKxGg8fr5iQHCcR7QoJ-12" edge="1">
                    <mxGeometry relative="1" as="geometry"/>
                </mxCell>
                <mxCell id="tzKxGg8fr5iQHCcR7QoJ-9" value="法务审核" style="rounded=0;whiteSpace=wrap;html=1;" parent="1" vertex="1">
                    <mxGeometry x="160" y="460" width="120" height="60" as="geometry"/>
                </mxCell>
                <mxCell id="tzKxGg8fr5iQHCcR7QoJ-10" value="" style="edgeStyle=none;html=1;" parent="1" source="tzKxGg8fr5iQHCcR7QoJ-12" target="tzKxGg8fr5iQHCcR7QoJ-14" edge="1">
                    <mxGeometry relative="1" as="geometry"/>
                </mxCell>
                <mxCell id="tzKxGg8fr5iQHCcR7QoJ-11" value="" style="edgeStyle=none;html=1;" parent="1" source="tzKxGg8fr5iQHCcR7QoJ-12" target="tzKxGg8fr5iQHCcR7QoJ-16" edge="1">
                    <mxGeometry relative="1" as="geometry"/>
                </mxCell>
                <mxCell id="tzKxGg8fr5iQHCcR7QoJ-12" value="通过" style="rhombus;whiteSpace=wrap;html=1;rounded=0;" parent="1" vertex="1">
                    <mxGeometry x="180" y="600" width="80" height="60" as="geometry"/>
                </mxCell>
                <mxCell id="tzKxGg8fr5iQHCcR7QoJ-13" style="edgeStyle=none;html=1;entryX=1;entryY=0.5;entryDx=0;entryDy=0;" parent="1" source="tzKxGg8fr5iQHCcR7QoJ-14" target="tzKxGg8fr5iQHCcR7QoJ-7" edge="1">
                    <mxGeometry relative="1" as="geometry">
                        <Array as="points">
                            <mxPoint x="380" y="350"/>
                        </Array>
                    </mxGeometry>
                </mxCell>
                <mxCell id="tzKxGg8fr5iQHCcR7QoJ-14" value="修改建议" style="whiteSpace=wrap;html=1;rounded=0;" parent="1" vertex="1">
                    <mxGeometry x="320" y="600" width="120" height="60" as="geometry"/>
                </mxCell>
                <mxCell id="tzKxGg8fr5iQHCcR7QoJ-15" value="" style="edgeStyle=none;html=1;" parent="1" source="tzKxGg8fr5iQHCcR7QoJ-16" target="tzKxGg8fr5iQHCcR7QoJ-18" edge="1">
                    <mxGeometry relative="1" as="geometry"/>
                </mxCell>
                <mxCell id="tzKxGg8fr5iQHCcR7QoJ-49" value="" style="edgeStyle=none;html=1;" parent="1" source="tzKxGg8fr5iQHCcR7QoJ-16" target="tzKxGg8fr5iQHCcR7QoJ-48" edge="1">
                    <mxGeometry relative="1" as="geometry"/>
                </mxCell>
                <mxCell id="tzKxGg8fr5iQHCcR7QoJ-16" value="合同审核" style="whiteSpace=wrap;html=1;rounded=0;" parent="1" vertex="1">
                    <mxGeometry x="160" y="740" width="120" height="60" as="geometry"/>
                </mxCell>
                <mxCell id="tzKxGg8fr5iQHCcR7QoJ-17" value="" style="edgeStyle=none;html=1;" parent="1" source="tzKxGg8fr5iQHCcR7QoJ-18" target="tzKxGg8fr5iQHCcR7QoJ-21" edge="1">
                    <mxGeometry relative="1" as="geometry"/>
                </mxCell>
                <mxCell id="JrI6VrAYgjBBd09SUULa-1" value="发给客户" style="edgeLabel;html=1;align=center;verticalAlign=middle;resizable=0;points=[];" parent="tzKxGg8fr5iQHCcR7QoJ-17" vertex="1" connectable="0">
                    <mxGeometry x="-0.1714" y="2" relative="1" as="geometry">
                        <mxPoint as="offset"/>
                    </mxGeometry>
                </mxCell>
                <mxCell id="tzKxGg8fr5iQHCcR7QoJ-18" value="下载合同" style="whiteSpace=wrap;html=1;rounded=0;" parent="1" vertex="1">
                    <mxGeometry x="160" y="880" width="120" height="60" as="geometry"/>
                </mxCell>
                <mxCell id="tzKxGg8fr5iQHCcR7QoJ-19" value="" style="edgeStyle=none;html=1;" parent="1" source="tzKxGg8fr5iQHCcR7QoJ-21" target="tzKxGg8fr5iQHCcR7QoJ-23" edge="1">
                    <mxGeometry relative="1" as="geometry"/>
                </mxCell>
                <mxCell id="tzKxGg8fr5iQHCcR7QoJ-20" value="" style="edgeStyle=none;html=1;" parent="1" source="tzKxGg8fr5iQHCcR7QoJ-21" target="tzKxGg8fr5iQHCcR7QoJ-27" edge="1">
                    <mxGeometry relative="1" as="geometry"/>
                </mxCell>
                <mxCell id="tzKxGg8fr5iQHCcR7QoJ-21" value="客户审核" style="rhombus;whiteSpace=wrap;html=1;rounded=0;" parent="1" vertex="1">
                    <mxGeometry x="180" y="1010" width="80" height="80" as="geometry"/>
                </mxCell>
                <mxCell id="tzKxGg8fr5iQHCcR7QoJ-22" value="" style="edgeStyle=none;html=1;" parent="1" source="tzKxGg8fr5iQHCcR7QoJ-23" target="tzKxGg8fr5iQHCcR7QoJ-25" edge="1">
                    <mxGeometry relative="1" as="geometry"/>
                </mxCell>
                <mxCell id="tzKxGg8fr5iQHCcR7QoJ-23" value="修改批注" style="whiteSpace=wrap;html=1;rounded=0;" parent="1" vertex="1">
                    <mxGeometry y="1020" width="120" height="60" as="geometry"/>
                </mxCell>
                <mxCell id="tzKxGg8fr5iQHCcR7QoJ-24" style="edgeStyle=none;html=1;" parent="1" source="tzKxGg8fr5iQHCcR7QoJ-25" target="tzKxGg8fr5iQHCcR7QoJ-7" edge="1">
                    <mxGeometry relative="1" as="geometry">
                        <Array as="points">
                            <mxPoint x="60" y="350"/>
                        </Array>
                    </mxGeometry>
                </mxCell>
                <mxCell id="tzKxGg8fr5iQHCcR7QoJ-25" value="合同版本 2.0" style="whiteSpace=wrap;html=1;rounded=0;" parent="1" vertex="1">
                    <mxGeometry y="880" width="120" height="60" as="geometry"/>
                </mxCell>
                <mxCell id="tzKxGg8fr5iQHCcR7QoJ-26" value="" style="edgeStyle=none;html=1;" parent="1" source="tzKxGg8fr5iQHCcR7QoJ-27" target="tzKxGg8fr5iQHCcR7QoJ-29" edge="1">
                    <mxGeometry relative="1" as="geometry"/>
                </mxCell>
                <mxCell id="tzKxGg8fr5iQHCcR7QoJ-27" value="客户签署" style="whiteSpace=wrap;html=1;rounded=0;" parent="1" vertex="1">
                    <mxGeometry x="160" y="1180" width="120" height="60" as="geometry"/>
                </mxCell>
                <mxCell id="tzKxGg8fr5iQHCcR7QoJ-28" value="" style="edgeStyle=none;html=1;" parent="1" source="tzKxGg8fr5iQHCcR7QoJ-29" target="tzKxGg8fr5iQHCcR7QoJ-32" edge="1">
                    <mxGeometry relative="1" as="geometry"/>
                </mxCell>
                <mxCell id="tzKxGg8fr5iQHCcR7QoJ-29" value="合同存档&lt;br&gt;（电子签名）" style="whiteSpace=wrap;html=1;rounded=0;" parent="1" vertex="1">
                    <mxGeometry x="160" y="1320" width="120" height="60" as="geometry"/>
                </mxCell>
                <mxCell id="tzKxGg8fr5iQHCcR7QoJ-30" value="合同每修改一次，版本号加一" style="whiteSpace=wrap;html=1;rounded=1;arcSize=50;align=center;verticalAlign=middle;strokeWidth=1;autosize=1;spacing=4;treeFolding=1;treeMoving=1;newEdgeStyle={&quot;edgeStyle&quot;:&quot;entityRelationEdgeStyle&quot;,&quot;startArrow&quot;:&quot;none&quot;,&quot;endArrow&quot;:&quot;none&quot;,&quot;segment&quot;:10,&quot;curved&quot;:1,&quot;sourcePerimeterSpacing&quot;:0,&quot;targetPerimeterSpacing&quot;:0};" parent="1" vertex="1">
                    <mxGeometry x="430" y="270" width="370" height="30" as="geometry"/>
                </mxCell>
                <mxCell id="tzKxGg8fr5iQHCcR7QoJ-31" value="" style="edgeStyle=entityRelationEdgeStyle;startArrow=none;endArrow=none;segment=10;curved=1;sourcePerimeterSpacing=0;targetPerimeterSpacing=0;" parent="1" target="tzKxGg8fr5iQHCcR7QoJ-30" edge="1">
                    <mxGeometry relative="1" as="geometry">
                        <mxPoint x="280" y="320" as="sourcePoint"/>
                    </mxGeometry>
                </mxCell>
                <mxCell id="tzKxGg8fr5iQHCcR7QoJ-32" value="合同下载和打印" style="whiteSpace=wrap;html=1;rounded=0;" parent="1" vertex="1">
                    <mxGeometry x="160" y="1460" width="120" height="60" as="geometry"/>
                </mxCell>
                <mxCell id="tzKxGg8fr5iQHCcR7QoJ-33" value="客户基本信息" style="rounded=0;whiteSpace=wrap;html=1;" parent="1" vertex="1">
                    <mxGeometry x="360" y="40" width="120" height="60" as="geometry"/>
                </mxCell>
                <mxCell id="tzKxGg8fr5iQHCcR7QoJ-34" value="材料清单" style="shape=table;startSize=30;container=1;collapsible=0;childLayout=tableLayout;fontStyle=1;align=center;" parent="1" vertex="1">
                    <mxGeometry x="620" y="320" width="180" height="150" as="geometry"/>
                </mxCell>
                <mxCell id="tzKxGg8fr5iQHCcR7QoJ-35" value="" style="shape=tableRow;horizontal=0;startSize=0;swimlaneHead=0;swimlaneBody=0;top=0;left=0;bottom=0;right=0;collapsible=0;dropTarget=0;fillColor=none;points=[[0,0.5],[1,0.5]];portConstraint=eastwest;" parent="tzKxGg8fr5iQHCcR7QoJ-34" vertex="1">
                    <mxGeometry y="30" width="180" height="40" as="geometry"/>
                </mxCell>
                <mxCell id="tzKxGg8fr5iQHCcR7QoJ-36" value="" style="shape=partialRectangle;html=1;whiteSpace=wrap;connectable=0;fillColor=none;top=0;left=0;bottom=0;right=0;overflow=hidden;" parent="tzKxGg8fr5iQHCcR7QoJ-35" vertex="1">
                    <mxGeometry width="60" height="40" as="geometry">
                        <mxRectangle width="60" height="40" as="alternateBounds"/>
                    </mxGeometry>
                </mxCell>
                <mxCell id="tzKxGg8fr5iQHCcR7QoJ-37" value="" style="shape=partialRectangle;html=1;whiteSpace=wrap;connectable=0;fillColor=none;top=0;left=0;bottom=0;right=0;overflow=hidden;" parent="tzKxGg8fr5iQHCcR7QoJ-35" vertex="1">
                    <mxGeometry x="60" width="60" height="40" as="geometry">
                        <mxRectangle width="60" height="40" as="alternateBounds"/>
                    </mxGeometry>
                </mxCell>
                <mxCell id="tzKxGg8fr5iQHCcR7QoJ-38" value="" style="shape=partialRectangle;html=1;whiteSpace=wrap;connectable=0;fillColor=none;top=0;left=0;bottom=0;right=0;overflow=hidden;" parent="tzKxGg8fr5iQHCcR7QoJ-35" vertex="1">
                    <mxGeometry x="120" width="60" height="40" as="geometry">
                        <mxRectangle width="60" height="40" as="alternateBounds"/>
                    </mxGeometry>
                </mxCell>
                <mxCell id="tzKxGg8fr5iQHCcR7QoJ-39" value="" style="shape=tableRow;horizontal=0;startSize=0;swimlaneHead=0;swimlaneBody=0;top=0;left=0;bottom=0;right=0;collapsible=0;dropTarget=0;fillColor=none;points=[[0,0.5],[1,0.5]];portConstraint=eastwest;" parent="tzKxGg8fr5iQHCcR7QoJ-34" vertex="1">
                    <mxGeometry y="70" width="180" height="40" as="geometry"/>
                </mxCell>
                <mxCell id="tzKxGg8fr5iQHCcR7QoJ-40" value="" style="shape=partialRectangle;html=1;whiteSpace=wrap;connectable=0;fillColor=none;top=0;left=0;bottom=0;right=0;overflow=hidden;" parent="tzKxGg8fr5iQHCcR7QoJ-39" vertex="1">
                    <mxGeometry width="60" height="40" as="geometry">
                        <mxRectangle width="60" height="40" as="alternateBounds"/>
                    </mxGeometry>
                </mxCell>
                <mxCell id="tzKxGg8fr5iQHCcR7QoJ-41" value="" style="shape=partialRectangle;html=1;whiteSpace=wrap;connectable=0;fillColor=none;top=0;left=0;bottom=0;right=0;overflow=hidden;" parent="tzKxGg8fr5iQHCcR7QoJ-39" vertex="1">
                    <mxGeometry x="60" width="60" height="40" as="geometry">
                        <mxRectangle width="60" height="40" as="alternateBounds"/>
                    </mxGeometry>
                </mxCell>
                <mxCell id="tzKxGg8fr5iQHCcR7QoJ-42" value="" style="shape=partialRectangle;html=1;whiteSpace=wrap;connectable=0;fillColor=none;top=0;left=0;bottom=0;right=0;overflow=hidden;" parent="tzKxGg8fr5iQHCcR7QoJ-39" vertex="1">
                    <mxGeometry x="120" width="60" height="40" as="geometry">
                        <mxRectangle width="60" height="40" as="alternateBounds"/>
                    </mxGeometry>
                </mxCell>
                <mxCell id="tzKxGg8fr5iQHCcR7QoJ-43" value="" style="shape=tableRow;horizontal=0;startSize=0;swimlaneHead=0;swimlaneBody=0;top=0;left=0;bottom=0;right=0;collapsible=0;dropTarget=0;fillColor=none;points=[[0,0.5],[1,0.5]];portConstraint=eastwest;" parent="tzKxGg8fr5iQHCcR7QoJ-34" vertex="1">
                    <mxGeometry y="110" width="180" height="40" as="geometry"/>
                </mxCell>
                <mxCell id="tzKxGg8fr5iQHCcR7QoJ-44" value="" style="shape=partialRectangle;html=1;whiteSpace=wrap;connectable=0;fillColor=none;top=0;left=0;bottom=0;right=0;overflow=hidden;" parent="tzKxGg8fr5iQHCcR7QoJ-43" vertex="1">
                    <mxGeometry width="60" height="40" as="geometry">
                        <mxRectangle width="60" height="40" as="alternateBounds"/>
                    </mxGeometry>
                </mxCell>
                <mxCell id="tzKxGg8fr5iQHCcR7QoJ-45" value="" style="shape=partialRectangle;html=1;whiteSpace=wrap;connectable=0;fillColor=none;top=0;left=0;bottom=0;right=0;overflow=hidden;" parent="tzKxGg8fr5iQHCcR7QoJ-43" vertex="1">
                    <mxGeometry x="60" width="60" height="40" as="geometry">
                        <mxRectangle width="60" height="40" as="alternateBounds"/>
                    </mxGeometry>
                </mxCell>
                <mxCell id="tzKxGg8fr5iQHCcR7QoJ-46" value="" style="shape=partialRectangle;html=1;whiteSpace=wrap;connectable=0;fillColor=none;top=0;left=0;bottom=0;right=0;overflow=hidden;" parent="tzKxGg8fr5iQHCcR7QoJ-43" vertex="1">
                    <mxGeometry x="120" width="60" height="40" as="geometry">
                        <mxRectangle width="60" height="40" as="alternateBounds"/>
                    </mxGeometry>
                </mxCell>
                <mxCell id="tzKxGg8fr5iQHCcR7QoJ-47" value="&lt;table border=&quot;1&quot; width=&quot;100%&quot; height=&quot;100%&quot; cellpadding=&quot;4&quot; style=&quot;width:100%;height:100%;border-collapse:collapse;&quot;&gt;&lt;tbody&gt;&lt;tr&gt;&lt;th align=&quot;center&quot;&gt;&lt;b&gt;采购条款&lt;/b&gt;&lt;/th&gt;&lt;/tr&gt;&lt;tr&gt;&lt;td align=&quot;center&quot;&gt;规格&lt;br&gt;付款方式&lt;br&gt;安装方式&lt;/td&gt;&lt;/tr&gt;&lt;tr&gt;&lt;td align=&quot;center&quot;&gt;Section 2.1&lt;br&gt;Section 2.2&lt;br&gt;Section 2.3&lt;/td&gt;&lt;/tr&gt;&lt;/tbody&gt;&lt;/table&gt;" style="text;html=1;whiteSpace=wrap;strokeColor=none;fillColor=none;overflow=fill;" parent="1" vertex="1">
                    <mxGeometry x="440" y="320" width="160" height="140" as="geometry"/>
                </mxCell>
                <mxCell id="tzKxGg8fr5iQHCcR7QoJ-51" value="" style="edgeStyle=none;html=1;" parent="1" source="tzKxGg8fr5iQHCcR7QoJ-48" target="tzKxGg8fr5iQHCcR7QoJ-50" edge="1">
                    <mxGeometry relative="1" as="geometry"/>
                </mxCell>
                <mxCell id="tzKxGg8fr5iQHCcR7QoJ-48" value="商务审核" style="whiteSpace=wrap;html=1;rounded=0;" parent="1" vertex="1">
                    <mxGeometry x="360" y="740" width="120" height="60" as="geometry"/>
                </mxCell>
                <mxCell id="tzKxGg8fr5iQHCcR7QoJ-53" value="" style="edgeStyle=none;html=1;" parent="1" source="tzKxGg8fr5iQHCcR7QoJ-50" target="tzKxGg8fr5iQHCcR7QoJ-52" edge="1">
                    <mxGeometry relative="1" as="geometry"/>
                </mxCell>
                <mxCell id="tzKxGg8fr5iQHCcR7QoJ-50" value="项目审核" style="whiteSpace=wrap;html=1;rounded=0;" parent="1" vertex="1">
                    <mxGeometry x="560" y="740" width="120" height="60" as="geometry"/>
                </mxCell>
                <mxCell id="tzKxGg8fr5iQHCcR7QoJ-52" value="采购审核" style="whiteSpace=wrap;html=1;rounded=0;" parent="1" vertex="1">
                    <mxGeometry x="760" y="740" width="120" height="60" as="geometry"/>
                </mxCell>
            </root>
        </mxGraphModel>
    </diagram>
    <diagram id="M5mrPxtPSn9jRvUNtsNj" name="施工合同">
        <mxGraphModel dx="1156" dy="876" grid="1" gridSize="10" guides="1" tooltips="1" connect="1" arrows="1" fold="1" page="1" pageScale="1" pageWidth="1169" pageHeight="827" math="0" shadow="0">
            <root>
                <mxCell id="0"/>
                <mxCell id="1" parent="0"/>
                <mxCell id="7" value="" style="edgeStyle=none;html=1;" parent="1" source="5" target="6" edge="1">
                    <mxGeometry relative="1" as="geometry"/>
                </mxCell>
                <mxCell id="39" value="" style="edgeStyle=none;html=1;" parent="1" source="5" target="38" edge="1">
                    <mxGeometry relative="1" as="geometry"/>
                </mxCell>
                <mxCell id="5" value="合同起草" style="rounded=0;whiteSpace=wrap;html=1;" parent="1" vertex="1">
                    <mxGeometry x="200" y="40" width="120" height="60" as="geometry"/>
                </mxCell>
                <mxCell id="10" value="" style="edgeStyle=none;html=1;" parent="1" source="6" target="9" edge="1">
                    <mxGeometry relative="1" as="geometry"/>
                </mxCell>
                <mxCell id="6" value="选择模版" style="rounded=0;whiteSpace=wrap;html=1;" parent="1" vertex="1">
                    <mxGeometry x="200" y="180" width="120" height="60" as="geometry"/>
                </mxCell>
                <mxCell id="12" value="" style="edgeStyle=none;html=1;" parent="1" source="9" target="11" edge="1">
                    <mxGeometry relative="1" as="geometry"/>
                </mxCell>
                <mxCell id="9" value="编辑合同&lt;br&gt;1.0" style="rounded=0;whiteSpace=wrap;html=1;" parent="1" vertex="1">
                    <mxGeometry x="200" y="320" width="120" height="60" as="geometry"/>
                </mxCell>
                <mxCell id="14" value="" style="edgeStyle=none;html=1;" parent="1" source="11" target="13" edge="1">
                    <mxGeometry relative="1" as="geometry"/>
                </mxCell>
                <mxCell id="11" value="法务审核" style="rounded=0;whiteSpace=wrap;html=1;" parent="1" vertex="1">
                    <mxGeometry x="200" y="460" width="120" height="60" as="geometry"/>
                </mxCell>
                <mxCell id="16" value="" style="edgeStyle=none;html=1;" parent="1" source="13" target="15" edge="1">
                    <mxGeometry relative="1" as="geometry"/>
                </mxCell>
                <mxCell id="19" value="" style="edgeStyle=none;html=1;" parent="1" source="13" target="18" edge="1">
                    <mxGeometry relative="1" as="geometry"/>
                </mxCell>
                <mxCell id="13" value="通过" style="rhombus;whiteSpace=wrap;html=1;rounded=0;" parent="1" vertex="1">
                    <mxGeometry x="220" y="600" width="80" height="60" as="geometry"/>
                </mxCell>
                <mxCell id="17" style="edgeStyle=none;html=1;entryX=1;entryY=0.5;entryDx=0;entryDy=0;" parent="1" source="15" target="9" edge="1">
                    <mxGeometry relative="1" as="geometry">
                        <Array as="points">
                            <mxPoint x="420" y="350"/>
                        </Array>
                    </mxGeometry>
                </mxCell>
                <mxCell id="15" value="修改建议" style="whiteSpace=wrap;html=1;rounded=0;" parent="1" vertex="1">
                    <mxGeometry x="360" y="600" width="120" height="60" as="geometry"/>
                </mxCell>
                <mxCell id="21" value="" style="edgeStyle=none;html=1;" parent="1" source="18" target="20" edge="1">
                    <mxGeometry relative="1" as="geometry"/>
                </mxCell>
                <mxCell id="18" value="发送客户" style="whiteSpace=wrap;html=1;rounded=0;" parent="1" vertex="1">
                    <mxGeometry x="200" y="740" width="120" height="60" as="geometry"/>
                </mxCell>
                <mxCell id="23" value="" style="edgeStyle=none;html=1;" parent="1" source="20" target="22" edge="1">
                    <mxGeometry relative="1" as="geometry"/>
                </mxCell>
                <mxCell id="20" value="下载合同" style="whiteSpace=wrap;html=1;rounded=0;" parent="1" vertex="1">
                    <mxGeometry x="200" y="880" width="120" height="60" as="geometry"/>
                </mxCell>
                <mxCell id="25" value="" style="edgeStyle=none;html=1;" parent="1" source="22" target="24" edge="1">
                    <mxGeometry relative="1" as="geometry"/>
                </mxCell>
                <mxCell id="30" value="" style="edgeStyle=none;html=1;" parent="1" source="22" target="29" edge="1">
                    <mxGeometry relative="1" as="geometry"/>
                </mxCell>
                <mxCell id="22" value="客户审核" style="rhombus;whiteSpace=wrap;html=1;rounded=0;" parent="1" vertex="1">
                    <mxGeometry x="220" y="1010" width="80" height="80" as="geometry"/>
                </mxCell>
                <mxCell id="27" value="" style="edgeStyle=none;html=1;" parent="1" source="24" target="26" edge="1">
                    <mxGeometry relative="1" as="geometry"/>
                </mxCell>
                <mxCell id="24" value="修改批注" style="whiteSpace=wrap;html=1;rounded=0;" parent="1" vertex="1">
                    <mxGeometry x="40" y="1020" width="120" height="60" as="geometry"/>
                </mxCell>
                <mxCell id="28" style="edgeStyle=none;html=1;" parent="1" source="26" target="9" edge="1">
                    <mxGeometry relative="1" as="geometry">
                        <Array as="points">
                            <mxPoint x="100" y="350"/>
                        </Array>
                    </mxGeometry>
                </mxCell>
                <mxCell id="26" value="合同版本 2.0" style="whiteSpace=wrap;html=1;rounded=0;" parent="1" vertex="1">
                    <mxGeometry x="40" y="880" width="120" height="60" as="geometry"/>
                </mxCell>
                <mxCell id="32" value="" style="edgeStyle=none;html=1;" parent="1" source="29" target="31" edge="1">
                    <mxGeometry relative="1" as="geometry"/>
                </mxCell>
                <mxCell id="29" value="客户签署" style="whiteSpace=wrap;html=1;rounded=0;" parent="1" vertex="1">
                    <mxGeometry x="200" y="1180" width="120" height="60" as="geometry"/>
                </mxCell>
                <mxCell id="37" value="" style="edgeStyle=none;html=1;" parent="1" source="31" target="36" edge="1">
                    <mxGeometry relative="1" as="geometry"/>
                </mxCell>
                <mxCell id="31" value="合同存档&lt;br&gt;（电子签名）" style="whiteSpace=wrap;html=1;rounded=0;" parent="1" vertex="1">
                    <mxGeometry x="200" y="1320" width="120" height="60" as="geometry"/>
                </mxCell>
                <mxCell id="33" value="合同每修改一次，版本号加一" style="whiteSpace=wrap;html=1;rounded=1;arcSize=50;align=center;verticalAlign=middle;strokeWidth=1;autosize=1;spacing=4;treeFolding=1;treeMoving=1;newEdgeStyle={&quot;edgeStyle&quot;:&quot;entityRelationEdgeStyle&quot;,&quot;startArrow&quot;:&quot;none&quot;,&quot;endArrow&quot;:&quot;none&quot;,&quot;segment&quot;:10,&quot;curved&quot;:1,&quot;sourcePerimeterSpacing&quot;:0,&quot;targetPerimeterSpacing&quot;:0};" parent="1" vertex="1">
                    <mxGeometry x="400" y="240" width="200" height="30" as="geometry"/>
                </mxCell>
                <mxCell id="34" value="" style="edgeStyle=entityRelationEdgeStyle;startArrow=none;endArrow=none;segment=10;curved=1;sourcePerimeterSpacing=0;targetPerimeterSpacing=0;" parent="1" target="33" edge="1">
                    <mxGeometry relative="1" as="geometry">
                        <mxPoint x="320" y="320" as="sourcePoint"/>
                    </mxGeometry>
                </mxCell>
                <mxCell id="36" value="合同下载和打印" style="whiteSpace=wrap;html=1;rounded=0;" parent="1" vertex="1">
                    <mxGeometry x="200" y="1460" width="120" height="60" as="geometry"/>
                </mxCell>
                <mxCell id="38" value="客户基本信息" style="rounded=0;whiteSpace=wrap;html=1;" parent="1" vertex="1">
                    <mxGeometry x="400" y="40" width="120" height="60" as="geometry"/>
                </mxCell>
            </root>
        </mxGraphModel>
    </diagram>
    <diagram id="dHOcw1cx8oONQfRhKioO" name="第 1 页">
        <mxGraphModel dx="1156" dy="876" grid="1" gridSize="10" guides="1" tooltips="1" connect="1" arrows="1" fold="1" page="1" pageScale="1" pageWidth="1169" pageHeight="827" math="0" shadow="0">
            <root>
                <mxCell id="0"/>
                <mxCell id="1" parent="0"/>
                <mxCell id="2" value="事故升级与处理流程" style="swimlane;childLayout=stackLayout;resizeParent=1;resizeParentMax=0;startSize=20;" parent="1" vertex="1">
                    <mxGeometry x="60" y="80" width="1090" height="600" as="geometry"/>
                </mxCell>
                <mxCell id="3" value="发现问题" style="swimlane;startSize=40;" parent="2" vertex="1">
                    <mxGeometry y="20" width="180" height="580" as="geometry"/>
                </mxCell>
                <mxCell id="8" value="监控系统" style="rounded=0;whiteSpace=wrap;html=1;" parent="3" vertex="1">
                    <mxGeometry x="10" y="60" width="120" height="40" as="geometry"/>
                </mxCell>
                <mxCell id="9" value="内部/对接（公司）" style="rounded=0;whiteSpace=wrap;html=1;" parent="3" vertex="1">
                    <mxGeometry x="10" y="260" width="120" height="40" as="geometry"/>
                </mxCell>
                <mxCell id="29" style="edgeStyle=none;html=1;" parent="3" source="10" target="9" edge="1">
                    <mxGeometry relative="1" as="geometry"/>
                </mxCell>
                <mxCell id="10" value="用户" style="rounded=0;whiteSpace=wrap;html=1;" parent="3" vertex="1">
                    <mxGeometry x="10" y="140" width="120" height="40" as="geometry"/>
                </mxCell>
                <mxCell id="28" value="" style="edgeStyle=none;html=1;" parent="3" source="11" target="9" edge="1">
                    <mxGeometry relative="1" as="geometry"/>
                </mxCell>
                <mxCell id="11" value="外部（合作商）" style="rounded=0;whiteSpace=wrap;html=1;" parent="3" vertex="1">
                    <mxGeometry x="10" y="380" width="120" height="40" as="geometry"/>
                </mxCell>
                <mxCell id="4" value="一线支持&#10;运维部" style="swimlane;startSize=40;" parent="2" vertex="1">
                    <mxGeometry x="180" y="20" width="340" height="580" as="geometry"/>
                </mxCell>
                <mxCell id="14" value="" style="edgeStyle=none;html=1;" parent="4" source="12" target="13" edge="1">
                    <mxGeometry relative="1" as="geometry"/>
                </mxCell>
                <mxCell id="52" value="" style="edgeStyle=none;html=1;" parent="4" source="12" target="51" edge="1">
                    <mxGeometry relative="1" as="geometry"/>
                </mxCell>
                <mxCell id="12" value="记录故障" style="rounded=0;whiteSpace=wrap;html=1;" parent="4" vertex="1">
                    <mxGeometry x="20" y="130" width="120" height="40" as="geometry"/>
                </mxCell>
                <mxCell id="16" value="" style="edgeStyle=none;html=1;" parent="4" source="13" target="15" edge="1">
                    <mxGeometry relative="1" as="geometry"/>
                </mxCell>
                <mxCell id="13" value="运维手册&lt;br&gt;历史处置方案" style="rounded=0;whiteSpace=wrap;html=1;" parent="4" vertex="1">
                    <mxGeometry x="20" y="200" width="120" height="40" as="geometry"/>
                </mxCell>
                <mxCell id="18" value="" style="edgeStyle=none;html=1;" parent="4" source="15" target="17" edge="1">
                    <mxGeometry relative="1" as="geometry"/>
                </mxCell>
                <mxCell id="34" value="找到处置方案" style="edgeLabel;html=1;align=center;verticalAlign=middle;resizable=0;points=[];" parent="18" vertex="1" connectable="0">
                    <mxGeometry x="-0.2875" y="2" relative="1" as="geometry">
                        <mxPoint as="offset"/>
                    </mxGeometry>
                </mxCell>
                <mxCell id="20" value="新" style="edgeStyle=none;html=1;" parent="4" source="15" target="19" edge="1">
                    <mxGeometry relative="1" as="geometry"/>
                </mxCell>
                <mxCell id="15" value="事故匹配" style="rhombus;whiteSpace=wrap;html=1;rounded=0;" parent="4" vertex="1">
                    <mxGeometry x="40" y="280" width="80" height="60" as="geometry"/>
                </mxCell>
                <mxCell id="17" value="处理解决" style="whiteSpace=wrap;html=1;rounded=0;" parent="4" vertex="1">
                    <mxGeometry x="20" y="420" width="120" height="40" as="geometry"/>
                </mxCell>
                <mxCell id="21" style="edgeStyle=none;html=1;" parent="4" source="19" target="17" edge="1">
                    <mxGeometry relative="1" as="geometry"/>
                </mxCell>
                <mxCell id="22" style="edgeStyle=none;html=1;" parent="4" source="19" target="13" edge="1">
                    <mxGeometry relative="1" as="geometry"/>
                </mxCell>
                <mxCell id="24" value="" style="edgeStyle=none;html=1;" parent="4" source="19" target="23" edge="1">
                    <mxGeometry relative="1" as="geometry"/>
                </mxCell>
                <mxCell id="19" value="检测排查" style="whiteSpace=wrap;html=1;rounded=0;" parent="4" vertex="1">
                    <mxGeometry x="180" y="290" width="120" height="40" as="geometry"/>
                </mxCell>
                <mxCell id="35" style="edgeStyle=none;html=1;" parent="4" source="23" target="17" edge="1">
                    <mxGeometry relative="1" as="geometry"/>
                </mxCell>
                <mxCell id="36" value="解决" style="edgeLabel;html=1;align=center;verticalAlign=middle;resizable=0;points=[];" parent="35" vertex="1" connectable="0">
                    <mxGeometry x="-0.1333" y="2" relative="1" as="geometry">
                        <mxPoint as="offset"/>
                    </mxGeometry>
                </mxCell>
                <mxCell id="23" value="是否解决" style="rhombus;whiteSpace=wrap;html=1;rounded=0;" parent="4" vertex="1">
                    <mxGeometry x="200" y="415" width="80" height="50" as="geometry"/>
                </mxCell>
                <mxCell id="32" value="" style="edgeStyle=none;html=1;" parent="4" source="25" target="12" edge="1">
                    <mxGeometry relative="1" as="geometry"/>
                </mxCell>
                <mxCell id="25" value="接受处理" style="rounded=0;whiteSpace=wrap;html=1;" parent="4" vertex="1">
                    <mxGeometry x="20" y="60" width="120" height="40" as="geometry"/>
                </mxCell>
                <mxCell id="51" value="每周运维例会&lt;br&gt;故障复盘" style="rounded=0;whiteSpace=wrap;html=1;" parent="4" vertex="1">
                    <mxGeometry x="180" y="130" width="120" height="40" as="geometry"/>
                </mxCell>
                <mxCell id="60" style="edgeStyle=none;html=1;" parent="4" source="58" target="17" edge="1">
                    <mxGeometry relative="1" as="geometry"/>
                </mxCell>
                <mxCell id="58" value="升级" style="whiteSpace=wrap;html=1;rounded=0;" parent="4" vertex="1">
                    <mxGeometry x="180" y="500" width="120" height="40" as="geometry"/>
                </mxCell>
                <mxCell id="6" value="二线支持&#10;测试部" style="swimlane;startSize=40;" parent="2" vertex="1">
                    <mxGeometry x="520" y="20" width="210" height="580" as="geometry"/>
                </mxCell>
                <mxCell id="37" value="测试协助" style="whiteSpace=wrap;html=1;rounded=0;" parent="6" vertex="1">
                    <mxGeometry x="35" y="60" width="120" height="40" as="geometry"/>
                </mxCell>
                <mxCell id="53" value="测试" style="whiteSpace=wrap;html=1;rounded=0;" parent="6" vertex="1">
                    <mxGeometry x="40" y="314" width="120" height="40" as="geometry"/>
                </mxCell>
                <mxCell id="55" value="测试情况" style="rhombus;whiteSpace=wrap;html=1;rounded=0;" parent="6" vertex="1">
                    <mxGeometry x="60" y="495" width="80" height="50" as="geometry"/>
                </mxCell>
                <mxCell id="56" value="" style="edgeStyle=none;html=1;" parent="6" source="53" target="55" edge="1">
                    <mxGeometry relative="1" as="geometry"/>
                </mxCell>
                <mxCell id="5" value="三线支持&#10;开发部" style="swimlane;startSize=40;" parent="2" vertex="1">
                    <mxGeometry x="730" y="20" width="180" height="580" as="geometry"/>
                </mxCell>
                <mxCell id="47" value="" style="edgeStyle=none;html=1;" parent="5" source="43" target="46" edge="1">
                    <mxGeometry relative="1" as="geometry"/>
                </mxCell>
                <mxCell id="43" value="热修复" style="whiteSpace=wrap;html=1;rounded=0;" parent="5" vertex="1">
                    <mxGeometry x="30" y="190" width="120" height="40" as="geometry"/>
                </mxCell>
                <mxCell id="46" value="紧急发布" style="whiteSpace=wrap;html=1;rounded=0;" parent="5" vertex="1">
                    <mxGeometry x="30" y="314" width="120" height="40" as="geometry"/>
                </mxCell>
                <mxCell id="7" value="四线支持&#10;服务商/厂商" style="swimlane;startSize=40;" parent="2" vertex="1">
                    <mxGeometry x="910" y="20" width="180" height="580" as="geometry"/>
                </mxCell>
                <mxCell id="49" value="阿里云&lt;br&gt;瘫痪" style="rounded=0;whiteSpace=wrap;html=1;" parent="7" vertex="1">
                    <mxGeometry x="30" y="160" width="120" height="60" as="geometry"/>
                </mxCell>
                <mxCell id="50" value="DDOS 攻击" style="rounded=0;whiteSpace=wrap;html=1;" parent="7" vertex="1">
                    <mxGeometry x="30" y="60" width="120" height="60" as="geometry"/>
                </mxCell>
                <mxCell id="64" value="CDN&lt;br&gt;瘫痪" style="rounded=0;whiteSpace=wrap;html=1;" parent="7" vertex="1">
                    <mxGeometry x="30" y="260" width="120" height="60" as="geometry"/>
                </mxCell>
                <mxCell id="26" value="" style="edgeStyle=none;html=1;" parent="2" source="8" target="25" edge="1">
                    <mxGeometry relative="1" as="geometry"/>
                </mxCell>
                <mxCell id="27" style="edgeStyle=none;html=1;entryX=0;entryY=0.5;entryDx=0;entryDy=0;" parent="2" source="9" target="25" edge="1">
                    <mxGeometry relative="1" as="geometry">
                        <Array as="points">
                            <mxPoint x="160" y="300"/>
                            <mxPoint x="160" y="140"/>
                        </Array>
                    </mxGeometry>
                </mxCell>
                <mxCell id="30" style="edgeStyle=none;html=1;" parent="2" source="17" target="9" edge="1">
                    <mxGeometry relative="1" as="geometry"/>
                </mxCell>
                <mxCell id="31" value="反馈" style="edgeLabel;html=1;align=center;verticalAlign=middle;resizable=0;points=[];" parent="30" vertex="1" connectable="0">
                    <mxGeometry x="-0.0073" y="1" relative="1" as="geometry">
                        <mxPoint x="-1" as="offset"/>
                    </mxGeometry>
                </mxCell>
                <mxCell id="38" value="" style="edgeStyle=none;html=1;" parent="2" source="23" target="37" edge="1">
                    <mxGeometry relative="1" as="geometry">
                        <Array as="points">
                            <mxPoint x="510" y="460"/>
                            <mxPoint x="510" y="110"/>
                        </Array>
                    </mxGeometry>
                </mxCell>
                <mxCell id="54" value="" style="edgeStyle=none;html=1;" parent="2" source="46" target="53" edge="1">
                    <mxGeometry relative="1" as="geometry"/>
                </mxCell>
                <mxCell id="59" value="" style="edgeStyle=none;html=1;" parent="2" source="55" target="58" edge="1">
                    <mxGeometry relative="1" as="geometry"/>
                </mxCell>
                <mxCell id="61" value="测试通过" style="edgeLabel;html=1;align=center;verticalAlign=middle;resizable=0;points=[];" parent="59" vertex="1" connectable="0">
                    <mxGeometry x="-0.12" y="-3" relative="1" as="geometry">
                        <mxPoint as="offset"/>
                    </mxGeometry>
                </mxCell>
                <mxCell id="62" style="edgeStyle=none;html=1;entryX=0.083;entryY=1;entryDx=0;entryDy=0;entryPerimeter=0;" parent="2" source="55" target="43" edge="1">
                    <mxGeometry relative="1" as="geometry"/>
                </mxCell>
                <mxCell id="63" value="未通过" style="edgeLabel;html=1;align=center;verticalAlign=middle;resizable=0;points=[];" parent="62" vertex="1" connectable="0">
                    <mxGeometry x="-0.1369" y="-2" relative="1" as="geometry">
                        <mxPoint as="offset"/>
                    </mxGeometry>
                </mxCell>
                <mxCell id="41" style="edgeStyle=none;html=1;entryX=1;entryY=0;entryDx=0;entryDy=0;" parent="1" source="39" target="17" edge="1">
                    <mxGeometry relative="1" as="geometry">
                        <Array as="points">
                            <mxPoint x="590" y="310"/>
                            <mxPoint x="590" y="460"/>
                        </Array>
                    </mxGeometry>
                </mxCell>
                <mxCell id="42" value="找到问题" style="edgeLabel;html=1;align=center;verticalAlign=middle;resizable=0;points=[];" parent="41" vertex="1" connectable="0">
                    <mxGeometry x="-0.4789" y="3" relative="1" as="geometry">
                        <mxPoint as="offset"/>
                    </mxGeometry>
                </mxCell>
                <mxCell id="44" value="" style="edgeStyle=none;html=1;" parent="1" source="39" target="43" edge="1">
                    <mxGeometry relative="1" as="geometry"/>
                </mxCell>
                <mxCell id="45" value="BUG" style="edgeLabel;html=1;align=center;verticalAlign=middle;resizable=0;points=[];" parent="44" vertex="1" connectable="0">
                    <mxGeometry x="-0.2" relative="1" as="geometry">
                        <mxPoint y="1" as="offset"/>
                    </mxGeometry>
                </mxCell>
                <mxCell id="39" value="是否解决" style="rhombus;whiteSpace=wrap;html=1;rounded=0;" parent="1" vertex="1">
                    <mxGeometry x="615" y="280" width="80" height="60" as="geometry"/>
                </mxCell>
                <mxCell id="40" value="" style="edgeStyle=none;html=1;" parent="1" source="37" target="39" edge="1">
                    <mxGeometry relative="1" as="geometry"/>
                </mxCell>
            </root>
        </mxGraphModel>
    </diagram>
</mxfile>